  0
SECTION
  2
HEADER
  9
$ANGBASE
  50
0.0
  9
$ANGDIR
  70
1
  9
$MEASUREMENT
  70
1
  0
ENDSEC
  0
SECTION
  2
TABLES
  0
TABLE
  2
LTYPE
  70
4
  0
LTYPE
  5
40F
  2
CONTINUOUS
  70
0
  3
Solid line
  72
65
  73
0
  40
0.0
  0
LTYPE
  5
410
  2
DASHDOT
 70
0
  3
Dash Dot ____ _ ____ _
 72
65
 73
4
 40
2.0
 49
1.25
 49
-0.25
 49
0.25
 49
-0.25
  0
LTYPE
  5
411
  2
DASHED
 70
0
  3
Dashed __ __ __ __ __
 72
65
 73
2
 40
0.75
 49
0.5
 49
-0.25
  0
LTYPE
  5
43B
  2
DOTTED
 70
0
  3
Dotted .  .  .  .
 72
65
 73
2
 40
0.2
 49
0.0
 49
-0.2
  0
ENDTAB
  0
TABLE
  2
STYLE
  70
4
  0
STYLE
  2
KICAD
  70
0
  40
0
  41
1
  42
1
  50
0
  71
0
  3
isocp.shx
  0
STYLE
  2
KICADB
  70
0
  40
0
  41
1
  42
1
  50
0
  71
0
  3
isocp.shx
  0
STYLE
  2
KICADI
  70
0
  40
0
  41
1
  42
1
  50
15
  71
0
  3
isocp.shx
  0
STYLE
  2
KICADBI
  70
0
  40
0
  41
1
  42
1
  50
15
  71
0
  3
isocp.shx
  0
ENDTAB
  0
TABLE
  2
LAYER
  70
1
  0
LAYER
  2
BLACK
  70
0
  62
7
  6
CONTINUOUS
  0
ENDTAB
  0
ENDSEC
  0
SECTION
  2
ENTITIES
0
CIRCLE
8
BLACK
10
311.1499999999999773
20
-82.5499999999999972
40
3.5
0
ARC
8
BLACK
10
17.875
20
-17.875
40
2.
50
90.00000000
51
180.00000000
0
LINE
8
BLACK
6
CONTINUOUS
10
17.875
20
-15.875
11
318.6750000000000114
21
-15.875
0
CIRCLE
8
BLACK
10
301.625
20
-106.3624999999999972
40
1.0999999999999999
0
ARC
8
BLACK
10
17.875
20
-109.125
40
2.
50
-180.00000000
51
-90.00000000
0
CIRCLE
8
BLACK
10
203.9937499999999773
20
-106.3624999999999972
40
1.0999999999999999
0
CIRCLE
8
BLACK
10
46.0375000000000014
20
-63.5
40
1.0999999999999999
0
CIRCLE
8
BLACK
10
34.9249999999999972
20
-20.6374999999999993
40
1.0999999999999999
0
LINE
8
BLACK
6
CONTINUOUS
10
320.6750000000000114
20
-17.875
11
320.6750000000000114
21
-109.125
0
LINE
8
BLACK
6
CONTINUOUS
10
318.6750000000000114
20
-111.125
11
17.875
21
-111.125
0
CIRCLE
8
BLACK
10
111.125
20
-20.6374999999999993
40
1.0999999999999999
0
CIRCLE
8
BLACK
10
311.1499999999999773
20
-20.6374999999999993
40
1.0999999999999999
0
CIRCLE
8
BLACK
10
201.6124999999999829
20
-63.5
40
1.0999999999999999
0
CIRCLE
8
BLACK
10
225.4249999999999829
20
-20.6374999999999993
40
1.0999999999999999
0
CIRCLE
8
BLACK
10
94.4562499999999972
20
-106.3624999999999972
40
1.0999999999999999
0
CIRCLE
8
BLACK
10
279.3999999999999773
20
-63.5
40
1.0999999999999999
0
ARC
8
BLACK
10
318.6750000000000114
20
-109.125
40
2.
50
-90.00000000
51
-0.00000000
0
LINE
8
BLACK
6
CONTINUOUS
10
15.875
20
-109.125
11
15.875
21
-17.875
0
CIRCLE
8
BLACK
10
34.9249999999999972
20
-106.3624999999999972
40
1.0999999999999999
0
ARC
8
BLACK
10
318.6750000000000114
20
-17.875
40
2.
50
0.00000000
51
90.00000000
0
CIRCLE
8
BLACK
10
311.1499999999999773
20
-63.5
40
3.5
0
CIRCLE
8
BLACK
10
125.4124999999999943
20
-63.5
40
1.0999999999999999
0
LINE
8
BLACK
6
CONTINUOUS
10
282.7187490000000025
20
-70.0000009999999975
11
282.71875
21
-57.
0
LINE
8
BLACK
6
CONTINUOUS
10
283.21875
20
-56.5
11
296.21875
21
-56.5
0
LINE
8
BLACK
6
CONTINUOUS
10
296.21875
20
-70.5
11
283.2187490000000025
21
-70.5000009999999975
0
LINE
8
BLACK
6
CONTINUOUS
10
296.71875
20
-57.
11
296.71875
21
-70.
0
ARC
8
BLACK
10
283.2187529999999924
20
-57.0000029999999995
40
0.5000030000089999
50
90.00034377
51
179.99965623
0
ARC
8
BLACK
10
283.21875
20
-70.
40
0.500001000001
50
-179.99988541
51
-90.00011459
0
ARC
8
BLACK
10
296.21875
20
-57.
40
0.5
50
0.00000000
51
90.00000000
0
ARC
8
BLACK
10
296.21875
20
-70.
40
0.5
50
-90.00000000
51
-0.00000000
0
LINE
8
BLACK
6
CONTINUOUS
10
280.3374989999999798
20
-50.9500010000000003
11
280.3374999999999773
21
-37.9499999999999957
0
LINE
8
BLACK
6
CONTINUOUS
10
280.8374999999999773
20
-37.4499999999999957
11
293.8374999999999773
21
-37.4499999999999957
0
LINE
8
BLACK
6
CONTINUOUS
10
293.8374999999999773
20
-51.4499999999999957
11
280.8374989999999798
21
-51.4500010000000003
0
LINE
8
BLACK
6
CONTINUOUS
10
294.3374999999999773
20
-37.9499999999999957
11
294.3374999999999773
21
-50.9499999999999957
0
ARC
8
BLACK
10
280.8375029999999697
20
-37.9500029999999953
40
0.5000030000089999
50
90.00034377
51
179.99965623
0
ARC
8
BLACK
10
280.8374999999999773
20
-50.9499999999999957
40
0.500001000001
50
-179.99988541
51
-90.00011459
0
ARC
8
BLACK
10
293.8374999999999773
20
-37.9499999999999957
40
0.5
50
0.00000000
51
90.00000000
0
ARC
8
BLACK
10
293.8374999999999773
20
-50.9499999999999957
40
0.5
50
-90.00000000
51
-0.00000000
0
LINE
8
BLACK
6
CONTINUOUS
10
258.9062490000000025
20
-89.0500009999999946
11
258.90625
21
-76.0499999999999972
0
LINE
8
BLACK
6
CONTINUOUS
10
259.40625
20
-75.5499999999999972
11
272.40625
21
-75.5499999999999972
0
LINE
8
BLACK
6
CONTINUOUS
10
272.40625
20
-89.5499999999999972
11
259.4062490000000025
21
-89.5500009999999946
0
LINE
8
BLACK
6
CONTINUOUS
10
272.90625
20
-76.0499999999999972
11
272.90625
21
-89.0499999999999972
0
ARC
8
BLACK
10
259.4062529999999924
20
-76.0500029999999896
40
0.5000030000089999
50
90.00034377
51
179.99965623
0
ARC
8
BLACK
10
259.40625
20
-89.0499999999999972
40
0.500001000001
50
-179.99988541
51
-90.00011459
0
ARC
8
BLACK
10
272.40625
20
-76.0499999999999972
40
0.5
50
0.00000000
51
90.00000000
0
ARC
8
BLACK
10
272.40625
20
-89.0499999999999972
40
0.5
50
-90.00000000
51
-0.00000000
0
LINE
8
BLACK
6
CONTINUOUS
10
185.0874989999999798
20
-108.1000009999999918
11
185.0875000000000057
21
-95.0999999999999943
0
LINE
8
BLACK
6
CONTINUOUS
10
185.5875000000000057
20
-94.5999999999999943
11
198.5874999999999773
21
-94.5999999999999943
0
LINE
8
BLACK
6
CONTINUOUS
10
198.5874999999999773
20
-108.5999999999999943
11
185.5874989999999798
21
-108.6000009999999918
0
LINE
8
BLACK
6
CONTINUOUS
10
199.0874999999999773
20
-95.0999999999999943
11
199.0874999999999773
21
-108.0999999999999943
0
ARC
8
BLACK
10
185.5875029999999981
20
-95.100003000000001
40
0.5000030000089999
50
90.00034377
51
179.99965623
0
ARC
8
BLACK
10
185.5875000000000057
20
-108.0999999999999943
40
0.500001000001
50
-179.99988541
51
-90.00011459
0
ARC
8
BLACK
10
198.5874999999999773
20
-95.0999999999999943
40
0.5
50
0.00000000
51
90.00000000
0
ARC
8
BLACK
10
198.5874999999999773
20
-108.0999999999999943
40
0.5
50
-90.00000000
51
-0.00000000
0
LINE
8
BLACK
6
CONTINUOUS
10
99.3624989999999997
20
-108.1000009999999918
11
99.3624999999999972
21
-95.0999999999999943
0
LINE
8
BLACK
6
CONTINUOUS
10
99.8624999999999972
20
-94.5999999999999943
11
112.8624999999999972
21
-94.5999999999999943
0
LINE
8
BLACK
6
CONTINUOUS
10
112.8624999999999972
20
-108.5999999999999943
11
99.8624989999999997
21
-108.6000009999999918
0
LINE
8
BLACK
6
CONTINUOUS
10
113.3624999999999972
20
-95.0999999999999943
11
113.3624999999999972
21
-108.0999999999999943
0
ARC
8
BLACK
10
99.8625029999999896
20
-95.100003000000001
40
0.5000030000089999
50
90.00034377
51
179.99965623
0
ARC
8
BLACK
10
99.8624999999999972
20
-108.0999999999999943
40
0.500001000001
50
-179.99988541
51
-90.00011459
0
ARC
8
BLACK
10
112.8624999999999972
20
-95.0999999999999943
40
0.5
50
0.00000000
51
90.00000000
0
ARC
8
BLACK
10
112.8624999999999972
20
-108.0999999999999943
40
0.5
50
-90.00000000
51
-0.00000000
0
LINE
8
BLACK
6
CONTINUOUS
10
20.781248999999999
20
-89.0500009999999946
11
20.78125
21
-76.0499999999999972
0
LINE
8
BLACK
6
CONTINUOUS
10
21.28125
20
-75.5499999999999972
11
34.28125
21
-75.5499999999999972
0
LINE
8
BLACK
6
CONTINUOUS
10
34.28125
20
-89.5499999999999972
11
21.281248999999999
21
-89.5500009999999946
0
LINE
8
BLACK
6
CONTINUOUS
10
34.78125
20
-76.0499999999999972
11
34.78125
21
-89.0499999999999972
0
ARC
8
BLACK
10
21.2812529999999995
20
-76.0500029999999896
40
0.5000030000089999
50
90.00034377
51
179.99965623
0
ARC
8
BLACK
10
21.28125
20
-89.0499999999999972
40
0.500001000001
50
-179.99988541
51
-90.00011459
0
ARC
8
BLACK
10
34.28125
20
-76.0499999999999972
40
0.5
50
0.00000000
51
90.00000000
0
ARC
8
BLACK
10
34.28125
20
-89.0499999999999972
40
0.5
50
-90.00000000
51
-0.00000000
0
LINE
8
BLACK
6
CONTINUOUS
10
25.5437489999999983
20
-70.0000009999999975
11
25.5437499999999993
21
-57.
0
LINE
8
BLACK
6
CONTINUOUS
10
26.0437499999999993
20
-56.5
11
39.0437499999999957
21
-56.5
0
LINE
8
BLACK
6
CONTINUOUS
10
39.0437499999999957
20
-70.5
11
26.0437489999999983
21
-70.5000009999999975
0
LINE
8
BLACK
6
CONTINUOUS
10
39.5437499999999957
20
-57.
11
39.5437499999999957
21
-70.
0
ARC
8
BLACK
10
26.0437529999999988
20
-57.0000029999999995
40
0.5000030000089999
50
90.00034377
51
179.99965623
0
ARC
8
BLACK
10
26.0437499999999993
20
-70.
40
0.500001000001
50
-179.99988541
51
-90.00011459
0
ARC
8
BLACK
10
39.0437499999999957
20
-57.
40
0.5
50
0.00000000
51
90.00000000
0
ARC
8
BLACK
10
39.0437499999999957
20
-70.
40
0.5
50
-90.00000000
51
-0.00000000
0
LINE
8
BLACK
6
CONTINUOUS
10
23.1624990000000004
20
-50.9500010000000003
11
23.1624999999999979
21
-37.9499999999999957
0
LINE
8
BLACK
6
CONTINUOUS
10
23.6624999999999979
20
-37.4499999999999957
11
36.6625000000000014
21
-37.4499999999999957
0
LINE
8
BLACK
6
CONTINUOUS
10
36.6625000000000014
20
-51.4499999999999957
11
23.6624990000000004
21
-51.4500010000000003
0
LINE
8
BLACK
6
CONTINUOUS
10
37.1625000000000014
20
-37.9499999999999957
11
37.1625000000000014
21
-50.9499999999999957
0
ARC
8
BLACK
10
23.6625029999999974
20
-37.9500029999999953
40
0.5000030000089999
50
90.00034377
51
179.99965623
0
ARC
8
BLACK
10
23.6624999999999979
20
-50.9499999999999957
40
0.500001000001
50
-179.99988541
51
-90.00011459
0
ARC
8
BLACK
10
36.6625000000000014
20
-37.9499999999999957
40
0.5
50
0.00000000
51
90.00000000
0
ARC
8
BLACK
10
36.6625000000000014
20
-50.9499999999999957
40
0.5
50
-90.00000000
51
-0.00000000
0
LINE
8
BLACK
6
CONTINUOUS
10
194.6124989999999855
20
-89.0500009999999946
11
194.6124999999999829
21
-76.0499999999999972
0
LINE
8
BLACK
6
CONTINUOUS
10
195.1124999999999829
20
-75.5499999999999972
11
208.1124999999999829
21
-75.5499999999999972
0
LINE
8
BLACK
6
CONTINUOUS
10
208.1124999999999829
20
-89.5499999999999972
11
195.1124989999999855
21
-89.5500009999999946
0
LINE
8
BLACK
6
CONTINUOUS
10
208.6124999999999829
20
-76.0499999999999972
11
208.6124999999999829
21
-89.0499999999999972
0
ARC
8
BLACK
10
195.1125009999999804
20
-76.0500009999999946
40
0.500001000001
50
90.00011459
51
179.99988541
0
ARC
8
BLACK
10
195.1124999999999829
20
-89.0499999999999972
40
0.500001000001
50
-179.99988541
51
-90.00011459
0
ARC
8
BLACK
10
208.1124999999999829
20
-76.0499999999999972
40
0.5
50
0.00000000
51
90.00000000
0
ARC
8
BLACK
10
208.1124999999999829
20
-89.0499999999999972
40
0.5
50
-90.00000000
51
-0.00000000
0
LINE
8
BLACK
6
CONTINUOUS
10
18.3999989999999976
20
-31.9000009999999996
11
18.3999999999999986
21
-18.8999999999999986
0
LINE
8
BLACK
6
CONTINUOUS
10
18.8999999999999986
20
-18.3999999999999986
11
31.8999999999999986
21
-18.3999999999999986
0
LINE
8
BLACK
6
CONTINUOUS
10
31.8999999999999986
20
-32.3999999999999986
11
18.8999989999999976
21
-32.4000009999999961
0
LINE
8
BLACK
6
CONTINUOUS
10
32.3999999999999986
20
-18.8999999999999986
11
32.3999999999999986
21
-31.8999999999999986
0
ARC
8
BLACK
10
18.9000009999999996
20
-18.9000009999999996
40
0.500001000001
50
90.00011459
51
179.99988541
0
ARC
8
BLACK
10
18.8999999999999986
20
-31.8999999999999986
40
0.500001000001
50
-179.99988541
51
-90.00011459
0
ARC
8
BLACK
10
31.8999999999999986
20
-18.8999999999999986
40
0.5
50
0.00000000
51
90.00000000
0
ARC
8
BLACK
10
31.8999999999999986
20
-31.8999999999999986
40
0.5
50
-90.00000000
51
-0.00000000
0
LINE
8
BLACK
6
CONTINUOUS
10
127.9374989999999883
20
-70.0000009999999975
11
127.9375
21
-57.
0
LINE
8
BLACK
6
CONTINUOUS
10
128.4375
20
-56.5
11
141.4375
21
-56.5
0
LINE
8
BLACK
6
CONTINUOUS
10
141.4375
20
-70.5
11
128.4374990000000025
21
-70.5000009999999975
0
LINE
8
BLACK
6
CONTINUOUS
10
141.9375
20
-57.
11
141.9375
21
-70.
0
ARC
8
BLACK
10
128.4375009999999975
20
-57.0000009999999975
40
0.500001000001
50
90.00011459
51
179.99988541
0
ARC
8
BLACK
10
128.4375
20
-70.
40
0.500001000001
50
-179.99988541
51
-90.00011459
0
ARC
8
BLACK
10
141.4375
20
-57.
40
0.5
50
0.00000000
51
90.00000000
0
ARC
8
BLACK
10
141.4375
20
-70.
40
0.5
50
-90.00000000
51
-0.00000000
0
LINE
8
BLACK
6
CONTINUOUS
10
261.2874989999999684
20
-70.0000009999999975
11
261.2874999999999659
21
-57.
0
LINE
8
BLACK
6
CONTINUOUS
10
261.7874999999999659
20
-56.5
11
274.7874999999999659
21
-56.5
0
LINE
8
BLACK
6
CONTINUOUS
10
274.7874999999999659
20
-70.5
11
261.7874989999999684
21
-70.5000009999999975
0
LINE
8
BLACK
6
CONTINUOUS
10
275.2874999999999659
20
-57.
11
275.2874999999999659
21
-70.
0
ARC
8
BLACK
10
261.7875009999999634
20
-57.0000009999999975
40
0.500001000001
50
90.00011459
51
179.99988541
0
ARC
8
BLACK
10
261.7874999999999659
20
-70.
40
0.500001000001
50
-179.99988541
51
-90.00011459
0
ARC
8
BLACK
10
274.7874999999999659
20
-57.
40
0.5
50
0.00000000
51
90.00000000
0
ARC
8
BLACK
10
274.7874999999999659
20
-70.
40
0.5
50
-90.00000000
51
-0.00000000
0
LINE
8
BLACK
6
CONTINUOUS
10
108.8874989999999912
20
-70.0000009999999975
11
108.8874999999999886
21
-57.
0
LINE
8
BLACK
6
CONTINUOUS
10
109.3874999999999886
20
-56.5
11
122.3874999999999886
21
-56.5
0
LINE
8
BLACK
6
CONTINUOUS
10
122.3874999999999886
20
-70.5
11
109.3874989999999912
21
-70.5000009999999975
0
LINE
8
BLACK
6
CONTINUOUS
10
122.8874999999999886
20
-57.
11
122.8874999999999886
21
-70.
0
ARC
8
BLACK
10
109.3875010000000003
20
-57.0000009999999975
40
0.500001000001
50
90.00011459
51
179.99988541
0
ARC
8
BLACK
10
109.3874999999999886
20
-70.
40
0.500001000001
50
-179.99988541
51
-90.00011459
0
ARC
8
BLACK
10
122.3874999999999886
20
-57.
40
0.5
50
0.00000000
51
90.00000000
0
ARC
8
BLACK
10
122.3874999999999886
20
-70.
40
0.5
50
-90.00000000
51
-0.00000000
0
LINE
8
BLACK
6
CONTINUOUS
10
285.0999989999999684
20
-89.0500009999999946
11
285.0999999999999659
21
-76.0499999999999972
0
LINE
8
BLACK
6
CONTINUOUS
10
285.5999999999999659
20
-75.5499999999999972
11
298.5999999999999659
21
-75.5499999999999972
0
LINE
8
BLACK
6
CONTINUOUS
10
298.5999999999999659
20
-89.5499999999999972
11
285.5999989999999684
21
-89.5500009999999946
0
LINE
8
BLACK
6
CONTINUOUS
10
299.0999999999999659
20
-76.0499999999999972
11
299.0999999999999659
21
-89.0499999999999972
0
ARC
8
BLACK
10
285.6000009999999634
20
-76.0500009999999946
40
0.500001000001
50
90.00011459
51
179.99988541
0
ARC
8
BLACK
10
285.5999999999999659
20
-89.0499999999999972
40
0.500001000001
50
-179.99988541
51
-90.00011459
0
ARC
8
BLACK
10
298.5999999999999659
20
-76.0499999999999972
40
0.5
50
0.00000000
51
90.00000000
0
ARC
8
BLACK
10
298.5999999999999659
20
-89.0499999999999972
40
0.5
50
-90.00000000
51
-0.00000000
0
LINE
8
BLACK
6
CONTINUOUS
10
304.1499989999999798
20
-108.1000009999999918
11
304.1499999999999773
21
-95.0999999999999943
0
LINE
8
BLACK
6
CONTINUOUS
10
304.6499999999999773
20
-94.5999999999999943
11
317.6499999999999773
21
-94.5999999999999943
0
LINE
8
BLACK
6
CONTINUOUS
10
317.6499999999999773
20
-108.5999999999999943
11
304.6499989999999798
21
-108.6000009999999918
0
LINE
8
BLACK
6
CONTINUOUS
10
318.1499999999999773
20
-95.0999999999999943
11
318.1499999999999773
21
-108.0999999999999943
0
ARC
8
BLACK
10
304.6500009999999747
20
-95.1000009999999918
40
0.500001000001
50
90.00011459
51
179.99988541
0
ARC
8
BLACK
10
304.6499999999999773
20
-108.0999999999999943
40
0.500001000001
50
-179.99988541
51
-90.00011459
0
ARC
8
BLACK
10
317.6499999999999773
20
-95.0999999999999943
40
0.5
50
0.00000000
51
90.00000000
0
ARC
8
BLACK
10
317.6499999999999773
20
-108.0999999999999943
40
0.5
50
-90.00000000
51
-0.00000000
0
LINE
8
BLACK
6
CONTINUOUS
10
113.649998999999994
20
-31.9000009999999996
11
113.6499999999999915
21
-18.8999999999999986
0
LINE
8
BLACK
6
CONTINUOUS
10
114.1499999999999915
20
-18.3999999999999986
11
127.1499999999999915
21
-18.3999999999999986
0
LINE
8
BLACK
6
CONTINUOUS
10
127.1499999999999915
20
-32.3999999999999986
11
114.149998999999994
21
-32.4000009999999961
0
LINE
8
BLACK
6
CONTINUOUS
10
127.6499999999999915
20
-18.8999999999999986
11
127.6499999999999915
21
-31.8999999999999986
0
ARC
8
BLACK
10
114.1500009999999889
20
-18.9000009999999996
40
0.500001000001
50
90.00011459
51
179.99988541
0
ARC
8
BLACK
10
114.1499999999999915
20
-31.8999999999999986
40
0.500001000001
50
-179.99988541
51
-90.00011459
0
ARC
8
BLACK
10
127.1499999999999915
20
-18.8999999999999986
40
0.5
50
0.00000000
51
90.00000000
0
ARC
8
BLACK
10
127.1499999999999915
20
-31.8999999999999986
40
0.5
50
-90.00000000
51
-0.00000000
0
LINE
8
BLACK
6
CONTINUOUS
10
156.5124989999999912
20
-89.0500009999999946
11
156.5124999999999886
21
-76.0499999999999972
0
LINE
8
BLACK
6
CONTINUOUS
10
157.0124999999999886
20
-75.5499999999999972
11
170.0124999999999886
21
-75.5499999999999972
0
LINE
8
BLACK
6
CONTINUOUS
10
170.0124999999999886
20
-89.5499999999999972
11
157.0124989999999912
21
-89.5500009999999946
0
LINE
8
BLACK
6
CONTINUOUS
10
170.5124999999999886
20
-76.0499999999999972
11
170.5124999999999886
21
-89.0499999999999972
0
ARC
8
BLACK
10
157.0125009999999861
20
-76.0500009999999946
40
0.500001000001
50
90.00011459
51
179.99988541
0
ARC
8
BLACK
10
157.0124999999999886
20
-89.0499999999999972
40
0.500001000001
50
-179.99988541
51
-90.00011459
0
ARC
8
BLACK
10
170.0124999999999886
20
-76.0499999999999972
40
0.5
50
0.00000000
51
90.00000000
0
ARC
8
BLACK
10
170.0124999999999886
20
-89.0499999999999972
40
0.5
50
-90.00000000
51
-0.00000000
0
LINE
8
BLACK
6
CONTINUOUS
10
75.5499989999999997
20
-108.1000009999999918
11
75.5499999999999972
21
-95.0999999999999943
0
LINE
8
BLACK
6
CONTINUOUS
10
76.0499999999999972
20
-94.5999999999999943
11
89.0499999999999972
21
-94.5999999999999943
0
LINE
8
BLACK
6
CONTINUOUS
10
89.0499999999999972
20
-108.5999999999999943
11
76.0499989999999997
21
-108.6000009999999918
0
LINE
8
BLACK
6
CONTINUOUS
10
89.5499999999999972
20
-95.0999999999999943
11
89.5499999999999972
21
-108.0999999999999943
0
ARC
8
BLACK
10
76.0500009999999946
20
-95.1000009999999918
40
0.500001000001
50
90.00011459
51
179.99988541
0
ARC
8
BLACK
10
76.0499999999999972
20
-108.0999999999999943
40
0.500001000001
50
-179.99988541
51
-90.00011459
0
ARC
8
BLACK
10
89.0499999999999972
20
-95.0999999999999943
40
0.5
50
0.00000000
51
90.00000000
0
ARC
8
BLACK
10
89.0499999999999972
20
-108.0999999999999943
40
0.5
50
-90.00000000
51
-0.00000000
0
LINE
8
BLACK
6
CONTINUOUS
10
123.1749989999999997
20
-108.1000009999999918
11
123.1749999999999972
21
-95.0999999999999943
0
LINE
8
BLACK
6
CONTINUOUS
10
123.6749999999999972
20
-94.5999999999999943
11
136.6749999999999829
21
-94.5999999999999943
0
LINE
8
BLACK
6
CONTINUOUS
10
136.6749999999999829
20
-108.5999999999999943
11
123.6749989999999997
21
-108.6000009999999918
0
LINE
8
BLACK
6
CONTINUOUS
10
137.1749999999999829
20
-95.0999999999999943
11
137.1749999999999829
21
-108.0999999999999943
0
ARC
8
BLACK
10
123.6750009999999946
20
-95.1000009999999918
40
0.500001000001
50
90.00011459
51
179.99988541
0
ARC
8
BLACK
10
123.6749999999999972
20
-108.0999999999999943
40
0.500001000001
50
-179.99988541
51
-90.00011459
0
ARC
8
BLACK
10
136.6749999999999829
20
-95.0999999999999943
40
0.5
50
0.00000000
51
90.00000000
0
ARC
8
BLACK
10
136.6749999999999829
20
-108.0999999999999943
40
0.5
50
-90.00000000
51
-0.00000000
0
LINE
8
BLACK
6
CONTINUOUS
10
266.0499990000000139
20
-108.1000009999999918
11
266.0500000000000114
21
-95.0999999999999943
0
LINE
8
BLACK
6
CONTINUOUS
10
266.5500000000000114
20
-94.5999999999999943
11
279.5500000000000114
21
-94.5999999999999943
0
LINE
8
BLACK
6
CONTINUOUS
10
279.5500000000000114
20
-108.5999999999999943
11
266.5499990000000139
21
-108.6000009999999918
0
LINE
8
BLACK
6
CONTINUOUS
10
280.0500000000000114
20
-95.0999999999999943
11
280.0500000000000114
21
-108.0999999999999943
0
ARC
8
BLACK
10
266.5500010000000088
20
-95.1000009999999918
40
0.500001000001
50
90.00011459
51
179.99988541
0
ARC
8
BLACK
10
266.5500000000000114
20
-108.0999999999999943
40
0.500001000001
50
-179.99988541
51
-90.00011459
0
ARC
8
BLACK
10
279.5500000000000114
20
-95.0999999999999943
40
0.5
50
0.00000000
51
90.00000000
0
ARC
8
BLACK
10
279.5500000000000114
20
-108.0999999999999943
40
0.5
50
-90.00000000
51
-0.00000000
0
LINE
8
BLACK
6
CONTINUOUS
10
208.8999989999999798
20
-31.9000009999999996
11
208.8999999999999773
21
-18.8999999999999986
0
LINE
8
BLACK
6
CONTINUOUS
10
209.3999999999999773
20
-18.3999999999999986
11
222.3999999999999773
21
-18.3999999999999986
0
LINE
8
BLACK
6
CONTINUOUS
10
222.3999999999999773
20
-32.3999999999999986
11
209.3999989999999798
21
-32.4000009999999961
0
LINE
8
BLACK
6
CONTINUOUS
10
222.8999999999999773
20
-18.8999999999999986
11
222.8999999999999773
21
-31.8999999999999986
0
ARC
8
BLACK
10
209.4000010000000032
20
-18.9000009999999996
40
0.500001000001
50
90.00011459
51
179.99988541
0
ARC
8
BLACK
10
209.3999999999999773
20
-31.8999999999999986
40
0.500001000001
50
-179.99988541
51
-90.00011459
0
ARC
8
BLACK
10
222.3999999999999773
20
-18.8999999999999986
40
0.5
50
0.00000000
51
90.00000000
0
ARC
8
BLACK
10
222.3999999999999773
20
-31.8999999999999986
40
0.5
50
-90.00000000
51
-0.00000000
0
LINE
8
BLACK
6
CONTINUOUS
10
70.7874989999999968
20
-70.0000009999999975
11
70.7874999999999943
21
-57.
0
LINE
8
BLACK
6
CONTINUOUS
10
71.2874999999999943
20
-56.5
11
84.2874999999999943
21
-56.5
0
LINE
8
BLACK
6
CONTINUOUS
10
84.2874999999999943
20
-70.5
11
71.2874989999999968
21
-70.5000009999999975
0
LINE
8
BLACK
6
CONTINUOUS
10
84.7874999999999943
20
-57.
11
84.7874999999999943
21
-70.
0
ARC
8
BLACK
10
71.2875009999999918
20
-57.0000009999999975
40
0.500001000001
50
90.00011459
51
179.99988541
0
ARC
8
BLACK
10
71.2874999999999943
20
-70.
40
0.500001000001
50
-179.99988541
51
-90.00011459
0
ARC
8
BLACK
10
84.2874999999999943
20
-57.
40
0.5
50
0.00000000
51
90.00000000
0
ARC
8
BLACK
10
84.2874999999999943
20
-70.
40
0.5
50
-90.00000000
51
-0.00000000
0
LINE
8
BLACK
6
CONTINUOUS
10
118.4124989999999968
20
-89.0500009999999946
11
118.4124999999999943
21
-76.0499999999999972
0
LINE
8
BLACK
6
CONTINUOUS
10
118.9124999999999943
20
-75.5499999999999972
11
131.9124999999999943
21
-75.5499999999999972
0
LINE
8
BLACK
6
CONTINUOUS
10
131.9124999999999943
20
-89.5499999999999972
11
118.9124989999999968
21
-89.5500009999999946
0
LINE
8
BLACK
6
CONTINUOUS
10
132.4124999999999943
20
-76.0499999999999972
11
132.4124999999999943
21
-89.0499999999999972
0
ARC
8
BLACK
10
118.9125009999999918
20
-76.0500009999999946
40
0.500001000001
50
90.00011459
51
179.99988541
0
ARC
8
BLACK
10
118.9124999999999943
20
-89.0499999999999972
40
0.500001000001
50
-179.99988541
51
-90.00011459
0
ARC
8
BLACK
10
131.9124999999999943
20
-76.0499999999999972
40
0.5
50
0.00000000
51
90.00000000
0
ARC
8
BLACK
10
131.9124999999999943
20
-89.0499999999999972
40
0.5
50
-90.00000000
51
-0.00000000
0
LINE
8
BLACK
6
CONTINUOUS
10
99.3624989999999997
20
-89.0500009999999946
11
99.3624999999999972
21
-76.0499999999999972
0
LINE
8
BLACK
6
CONTINUOUS
10
99.8624999999999972
20
-75.5499999999999972
11
112.8624999999999972
21
-75.5499999999999972
0
LINE
8
BLACK
6
CONTINUOUS
10
112.8624999999999972
20
-89.5499999999999972
11
99.8624989999999997
21
-89.5500009999999946
0
LINE
8
BLACK
6
CONTINUOUS
10
113.3624999999999972
20
-76.0499999999999972
11
113.3624999999999972
21
-89.0499999999999972
0
ARC
8
BLACK
10
99.8625009999999946
20
-76.0500009999999946
40
0.500001000001
50
90.00011459
51
179.99988541
0
ARC
8
BLACK
10
99.8624999999999972
20
-89.0499999999999972
40
0.500001000001
50
-179.99988541
51
-90.00011459
0
ARC
8
BLACK
10
112.8624999999999972
20
-76.0499999999999972
40
0.5
50
0.00000000
51
90.00000000
0
ARC
8
BLACK
10
112.8624999999999972
20
-89.0499999999999972
40
0.5
50
-90.00000000
51
-0.00000000
0
LINE
8
BLACK
6
CONTINUOUS
10
307.339999999999975
20
-50.
11
314.9599999999999795
21
-50.
0
LINE
8
BLACK
6
CONTINUOUS
10
314.9599999999999795
20
-51.5999999999999943
11
307.339999999999975
21
-51.5999999999999943
0
ARC
8
BLACK
10
307.339999999999975
20
-50.7999999999999972
40
0.7999999999999999
50
-270.00000000
51
-90.00000000
0
ARC
8
BLACK
10
314.9599999999999795
20
-50.7999999999999972
40
0.7999999999999999
50
-90.00000000
51
90.00000000
0
LINE
8
BLACK
6
CONTINUOUS
10
137.4624989999999798
20
-89.0500009999999946
11
137.4625000000000057
21
-76.0499999999999972
0
LINE
8
BLACK
6
CONTINUOUS
10
137.9625000000000057
20
-75.5499999999999972
11
150.9625000000000057
21
-75.5499999999999972
0
LINE
8
BLACK
6
CONTINUOUS
10
150.9625000000000057
20
-89.5499999999999972
11
137.9624989999999798
21
-89.5500009999999946
0
LINE
8
BLACK
6
CONTINUOUS
10
151.4625000000000057
20
-76.0499999999999972
11
151.4625000000000057
21
-89.0499999999999972
0
ARC
8
BLACK
10
137.9625010000000032
20
-76.0500009999999946
40
0.500001000001
50
90.00011459
51
179.99988541
0
ARC
8
BLACK
10
137.9625000000000057
20
-89.0499999999999972
40
0.500001000001
50
-179.99988541
51
-90.00011459
0
ARC
8
BLACK
10
150.9625000000000057
20
-76.0499999999999972
40
0.5
50
0.00000000
51
90.00000000
0
ARC
8
BLACK
10
150.9625000000000057
20
-89.0499999999999972
40
0.5
50
-90.00000000
51
-0.00000000
0
LINE
8
BLACK
6
CONTINUOUS
10
142.2249989999999968
20
-50.9500010000000003
11
142.2249999999999943
21
-37.9499999999999957
0
LINE
8
BLACK
6
CONTINUOUS
10
142.7249999999999943
20
-37.4499999999999957
11
155.7249999999999943
21
-37.4499999999999957
0
LINE
8
BLACK
6
CONTINUOUS
10
155.7249999999999943
20
-51.4499999999999957
11
142.7249989999999968
21
-51.4500010000000003
0
LINE
8
BLACK
6
CONTINUOUS
10
156.2249999999999943
20
-37.9499999999999957
11
156.2249999999999943
21
-50.9499999999999957
0
ARC
8
BLACK
10
142.7250009999999918
20
-37.9500010000000003
40
0.500001000001
50
90.00011459
51
179.99988541
0
ARC
8
BLACK
10
142.7249999999999943
20
-50.9499999999999957
40
0.500001000001
50
-179.99988541
51
-90.00011459
0
ARC
8
BLACK
10
155.7249999999999943
20
-37.9499999999999957
40
0.5
50
0.00000000
51
90.00000000
0
ARC
8
BLACK
10
155.7249999999999943
20
-50.9499999999999957
40
0.5
50
-90.00000000
51
-0.00000000
0
LINE
8
BLACK
6
CONTINUOUS
10
146.9874989999999855
20
-70.0000009999999975
11
146.9874999999999829
21
-57.
0
LINE
8
BLACK
6
CONTINUOUS
10
147.4874999999999829
20
-56.5
11
160.4874999999999829
21
-56.5
0
LINE
8
BLACK
6
CONTINUOUS
10
160.4874999999999829
20
-70.5
11
147.4874989999999855
21
-70.5000009999999975
0
LINE
8
BLACK
6
CONTINUOUS
10
160.9874999999999829
20
-57.
11
160.9874999999999829
21
-70.
0
ARC
8
BLACK
10
147.4875009999999804
20
-57.0000009999999975
40
0.500001000001
50
90.00011459
51
179.99988541
0
ARC
8
BLACK
10
147.4874999999999829
20
-70.
40
0.500001000001
50
-179.99988541
51
-90.00011459
0
ARC
8
BLACK
10
160.4874999999999829
20
-57.
40
0.5
50
0.00000000
51
90.00000000
0
ARC
8
BLACK
10
160.4874999999999829
20
-70.
40
0.5
50
-90.00000000
51
-0.00000000
0
LINE
8
BLACK
6
CONTINUOUS
10
285.0999989999999684
20
-108.1000009999999918
11
285.0999999999999659
21
-95.0999999999999943
0
LINE
8
BLACK
6
CONTINUOUS
10
285.5999999999999659
20
-94.5999999999999943
11
298.5999999999999659
21
-94.5999999999999943
0
LINE
8
BLACK
6
CONTINUOUS
10
298.5999999999999659
20
-108.5999999999999943
11
285.5999989999999684
21
-108.6000009999999918
0
LINE
8
BLACK
6
CONTINUOUS
10
299.0999999999999659
20
-95.0999999999999943
11
299.0999999999999659
21
-108.0999999999999943
0
ARC
8
BLACK
10
285.6000009999999634
20
-95.1000009999999918
40
0.500001000001
50
90.00011459
51
179.99988541
0
ARC
8
BLACK
10
285.5999999999999659
20
-108.0999999999999943
40
0.500001000001
50
-179.99988541
51
-90.00011459
0
ARC
8
BLACK
10
298.5999999999999659
20
-95.0999999999999943
40
0.5
50
0.00000000
51
90.00000000
0
ARC
8
BLACK
10
298.5999999999999659
20
-108.0999999999999943
40
0.5
50
-90.00000000
51
-0.00000000
0
LINE
8
BLACK
6
CONTINUOUS
10
56.4999989999999954
20
-31.9000009999999996
11
56.5
21
-18.8999999999999986
0
LINE
8
BLACK
6
CONTINUOUS
10
57.
20
-18.3999999999999986
11
70.
21
-18.3999999999999986
0
LINE
8
BLACK
6
CONTINUOUS
10
70.
20
-32.3999999999999986
11
56.9999989999999954
21
-32.4000009999999961
0
LINE
8
BLACK
6
CONTINUOUS
10
70.5
20
-18.8999999999999986
11
70.5
21
-31.8999999999999986
0
ARC
8
BLACK
10
57.0000009999999975
20
-18.9000009999999996
40
0.500001000001
50
90.00011459
51
179.99988541
0
ARC
8
BLACK
10
57.
20
-31.8999999999999986
40
0.500001000001
50
-179.99988541
51
-90.00011459
0
ARC
8
BLACK
10
70.
20
-18.8999999999999986
40
0.5
50
0.00000000
51
90.00000000
0
ARC
8
BLACK
10
70.
20
-31.8999999999999986
40
0.5
50
-90.00000000
51
-0.00000000
0
LINE
8
BLACK
6
CONTINUOUS
10
185.0874989999999798
20
-70.0000009999999975
11
185.0875000000000057
21
-57.
0
LINE
8
BLACK
6
CONTINUOUS
10
185.5875000000000057
20
-56.5
11
198.5874999999999773
21
-56.5
0
LINE
8
BLACK
6
CONTINUOUS
10
198.5874999999999773
20
-70.5
11
185.5874989999999798
21
-70.5000009999999975
0
LINE
8
BLACK
6
CONTINUOUS
10
199.0874999999999773
20
-57.
11
199.0874999999999773
21
-70.
0
ARC
8
BLACK
10
185.5875010000000032
20
-57.0000009999999975
40
0.500001000001
50
90.00011459
51
179.99988541
0
ARC
8
BLACK
10
185.5875000000000057
20
-70.
40
0.500001000001
50
-179.99988541
51
-90.00011459
0
ARC
8
BLACK
10
198.5874999999999773
20
-57.
40
0.5
50
0.00000000
51
90.00000000
0
ARC
8
BLACK
10
198.5874999999999773
20
-70.
40
0.5
50
-90.00000000
51
-0.00000000
0
LINE
8
BLACK
6
CONTINUOUS
10
132.6999989999999912
20
-31.9000009999999996
11
132.6999999999999886
21
-18.8999999999999986
0
LINE
8
BLACK
6
CONTINUOUS
10
133.1999999999999886
20
-18.3999999999999986
11
146.1999999999999886
21
-18.3999999999999986
0
LINE
8
BLACK
6
CONTINUOUS
10
146.1999999999999886
20
-32.3999999999999986
11
133.1999989999999912
21
-32.4000009999999961
0
LINE
8
BLACK
6
CONTINUOUS
10
146.6999999999999886
20
-18.8999999999999986
11
146.6999999999999886
21
-31.8999999999999986
0
ARC
8
BLACK
10
133.2000009999999861
20
-18.9000009999999996
40
0.500001000001
50
90.00011459
51
179.99988541
0
ARC
8
BLACK
10
133.1999999999999886
20
-31.8999999999999986
40
0.500001000001
50
-179.99988541
51
-90.00011459
0
ARC
8
BLACK
10
146.1999999999999886
20
-18.8999999999999986
40
0.5
50
0.00000000
51
90.00000000
0
ARC
8
BLACK
10
146.1999999999999886
20
-31.8999999999999986
40
0.5
50
-90.00000000
51
-0.00000000
0
LINE
8
BLACK
6
CONTINUOUS
10
170.7999989999999855
20
-31.9000009999999996
11
170.7999999999999829
21
-18.8999999999999986
0
LINE
8
BLACK
6
CONTINUOUS
10
171.2999999999999829
20
-18.3999999999999986
11
184.2999999999999829
21
-18.3999999999999986
0
LINE
8
BLACK
6
CONTINUOUS
10
184.2999999999999829
20
-32.3999999999999986
11
171.2999989999999855
21
-32.4000009999999961
0
LINE
8
BLACK
6
CONTINUOUS
10
184.7999999999999829
20
-18.8999999999999986
11
184.7999999999999829
21
-31.8999999999999986
0
ARC
8
BLACK
10
171.3000009999999804
20
-18.9000009999999996
40
0.500001000001
50
90.00011459
51
179.99988541
0
ARC
8
BLACK
10
171.2999999999999829
20
-31.8999999999999986
40
0.500001000001
50
-179.99988541
51
-90.00011459
0
ARC
8
BLACK
10
184.2999999999999829
20
-18.8999999999999986
40
0.5
50
0.00000000
51
90.00000000
0
ARC
8
BLACK
10
184.2999999999999829
20
-31.8999999999999986
40
0.5
50
-90.00000000
51
-0.00000000
0
LINE
8
BLACK
6
CONTINUOUS
10
246.9999990000000025
20
-108.1000009999999918
11
247.
21
-95.0999999999999943
0
LINE
8
BLACK
6
CONTINUOUS
10
247.5
20
-94.5999999999999943
11
260.5
21
-94.5999999999999943
0
LINE
8
BLACK
6
CONTINUOUS
10
260.5
20
-108.5999999999999943
11
247.4999990000000025
21
-108.6000009999999918
0
LINE
8
BLACK
6
CONTINUOUS
10
261.
20
-95.0999999999999943
11
261.
21
-108.0999999999999943
0
ARC
8
BLACK
10
247.5000009999999975
20
-95.1000009999999918
40
0.500001000001
50
90.00011459
51
179.99988541
0
ARC
8
BLACK
10
247.5
20
-108.0999999999999943
40
0.500001000001
50
-179.99988541
51
-90.00011459
0
ARC
8
BLACK
10
260.5
20
-95.0999999999999943
40
0.5
50
0.00000000
51
90.00000000
0
ARC
8
BLACK
10
260.5
20
-108.0999999999999943
40
0.5
50
-90.00000000
51
-0.00000000
0
LINE
8
BLACK
6
CONTINUOUS
10
218.4249989999999855
20
-50.9500010000000003
11
218.4249999999999829
21
-37.9499999999999957
0
LINE
8
BLACK
6
CONTINUOUS
10
218.9249999999999829
20
-37.4499999999999957
11
231.9249999999999829
21
-37.4499999999999957
0
LINE
8
BLACK
6
CONTINUOUS
10
231.9249999999999829
20
-51.4499999999999957
11
218.9249989999999855
21
-51.4500010000000003
0
LINE
8
BLACK
6
CONTINUOUS
10
232.4249999999999829
20
-37.9499999999999957
11
232.4249999999999829
21
-50.9499999999999957
0
ARC
8
BLACK
10
218.9250009999999804
20
-37.9500010000000003
40
0.500001000001
50
90.00011459
51
179.99988541
0
ARC
8
BLACK
10
218.9249999999999829
20
-50.9499999999999957
40
0.500001000001
50
-179.99988541
51
-90.00011459
0
ARC
8
BLACK
10
231.9249999999999829
20
-37.9499999999999957
40
0.5
50
0.00000000
51
90.00000000
0
ARC
8
BLACK
10
231.9249999999999829
20
-50.9499999999999957
40
0.5
50
-90.00000000
51
-0.00000000
0
LINE
8
BLACK
6
CONTINUOUS
10
42.2124990000000011
20
-89.0500009999999946
11
42.2124999999999986
21
-76.0499999999999972
0
LINE
8
BLACK
6
CONTINUOUS
10
42.7124999999999986
20
-75.5499999999999972
11
55.7124999999999986
21
-75.5499999999999972
0
LINE
8
BLACK
6
CONTINUOUS
10
55.7124999999999986
20
-89.5499999999999972
11
42.7124990000000011
21
-89.5500009999999946
0
LINE
8
BLACK
6
CONTINUOUS
10
56.2124999999999986
20
-76.0499999999999972
11
56.2124999999999986
21
-89.0499999999999972
0
ARC
8
BLACK
10
42.7125009999999961
20
-76.0500009999999946
40
0.500001000001
50
90.00011459
51
179.99988541
0
ARC
8
BLACK
10
42.7124999999999986
20
-89.0499999999999972
40
0.500001000001
50
-179.99988541
51
-90.00011459
0
ARC
8
BLACK
10
55.7124999999999986
20
-76.0499999999999972
40
0.5
50
0.00000000
51
90.00000000
0
ARC
8
BLACK
10
55.7124999999999986
20
-89.0499999999999972
40
0.5
50
-90.00000000
51
-0.00000000
0
LINE
8
BLACK
6
CONTINUOUS
10
66.024998999999994
20
-50.9500010000000003
11
66.0249999999999915
21
-37.9499999999999957
0
LINE
8
BLACK
6
CONTINUOUS
10
66.5249999999999915
20
-37.4499999999999957
11
79.5249999999999915
21
-37.4499999999999957
0
LINE
8
BLACK
6
CONTINUOUS
10
79.5249999999999915
20
-51.4499999999999957
11
66.524998999999994
21
-51.4500010000000003
0
LINE
8
BLACK
6
CONTINUOUS
10
80.0249999999999915
20
-37.9499999999999957
11
80.0249999999999915
21
-50.9499999999999957
0
ARC
8
BLACK
10
66.5250010000000032
20
-37.9500010000000003
40
0.500001000001
50
90.00011459
51
179.99988541
0
ARC
8
BLACK
10
66.5249999999999915
20
-50.9499999999999957
40
0.500001000001
50
-179.99988541
51
-90.00011459
0
ARC
8
BLACK
10
79.5249999999999915
20
-37.9499999999999957
40
0.5
50
0.00000000
51
90.00000000
0
ARC
8
BLACK
10
79.5249999999999915
20
-50.9499999999999957
40
0.5
50
-90.00000000
51
-0.00000000
0
LINE
8
BLACK
6
CONTINUOUS
10
208.8999989999999798
20
-108.1000009999999918
11
208.8999999999999773
21
-95.0999999999999943
0
LINE
8
BLACK
6
CONTINUOUS
10
209.3999999999999773
20
-94.5999999999999943
11
222.3999999999999773
21
-94.5999999999999943
0
LINE
8
BLACK
6
CONTINUOUS
10
222.3999999999999773
20
-108.5999999999999943
11
209.3999989999999798
21
-108.6000009999999918
0
LINE
8
BLACK
6
CONTINUOUS
10
222.8999999999999773
20
-95.0999999999999943
11
222.8999999999999773
21
-108.0999999999999943
0
ARC
8
BLACK
10
209.4000010000000032
20
-95.1000009999999918
40
0.500001000001
50
90.00011459
51
179.99988541
0
ARC
8
BLACK
10
209.3999999999999773
20
-108.0999999999999943
40
0.500001000001
50
-179.99988541
51
-90.00011459
0
ARC
8
BLACK
10
222.3999999999999773
20
-95.0999999999999943
40
0.5
50
0.00000000
51
90.00000000
0
ARC
8
BLACK
10
222.3999999999999773
20
-108.0999999999999943
40
0.5
50
-90.00000000
51
-0.00000000
0
LINE
8
BLACK
6
CONTINUOUS
10
94.5999989999999968
20
-31.9000009999999996
11
94.5999999999999943
21
-18.8999999999999986
0
LINE
8
BLACK
6
CONTINUOUS
10
95.0999999999999943
20
-18.3999999999999986
11
108.0999999999999943
21
-18.3999999999999986
0
LINE
8
BLACK
6
CONTINUOUS
10
108.0999999999999943
20
-32.3999999999999986
11
95.0999989999999968
21
-32.4000009999999961
0
LINE
8
BLACK
6
CONTINUOUS
10
108.5999999999999943
20
-18.8999999999999986
11
108.5999999999999943
21
-31.8999999999999986
0
ARC
8
BLACK
10
95.1000009999999918
20
-18.9000009999999996
40
0.500001000001
50
90.00011459
51
179.99988541
0
ARC
8
BLACK
10
95.0999999999999943
20
-31.8999999999999986
40
0.500001000001
50
-179.99988541
51
-90.00011459
0
ARC
8
BLACK
10
108.0999999999999943
20
-18.8999999999999986
40
0.5
50
0.00000000
51
90.00000000
0
ARC
8
BLACK
10
108.0999999999999943
20
-31.8999999999999986
40
0.5
50
-90.00000000
51
-0.00000000
0
LINE
8
BLACK
6
CONTINUOUS
10
161.2749989999999798
20
-108.1000009999999918
11
161.2750000000000057
21
-95.0999999999999943
0
LINE
8
BLACK
6
CONTINUOUS
10
161.7750000000000057
20
-94.5999999999999943
11
174.7750000000000057
21
-94.5999999999999943
0
LINE
8
BLACK
6
CONTINUOUS
10
174.7750000000000057
20
-108.5999999999999943
11
161.7749989999999798
21
-108.6000009999999918
0
LINE
8
BLACK
6
CONTINUOUS
10
175.2750000000000057
20
-95.0999999999999943
11
175.2750000000000057
21
-108.0999999999999943
0
ARC
8
BLACK
10
161.7750010000000032
20
-95.1000009999999918
40
0.500001000001
50
90.00011459
51
179.99988541
0
ARC
8
BLACK
10
161.7750000000000057
20
-108.0999999999999943
40
0.500001000001
50
-179.99988541
51
-90.00011459
0
ARC
8
BLACK
10
174.7750000000000057
20
-95.0999999999999943
40
0.5
50
0.00000000
51
90.00000000
0
ARC
8
BLACK
10
174.7750000000000057
20
-108.0999999999999943
40
0.5
50
-90.00000000
51
-0.00000000
0
LINE
8
BLACK
6
CONTINUOUS
10
123.1749989999999997
20
-50.9500010000000003
11
123.1749999999999972
21
-37.9499999999999957
0
LINE
8
BLACK
6
CONTINUOUS
10
123.6749999999999972
20
-37.4499999999999957
11
136.6749999999999829
21
-37.4499999999999957
0
LINE
8
BLACK
6
CONTINUOUS
10
136.6749999999999829
20
-51.4499999999999957
11
123.6749989999999997
21
-51.4500010000000003
0
LINE
8
BLACK
6
CONTINUOUS
10
137.1749999999999829
20
-37.9499999999999957
11
137.1749999999999829
21
-50.9499999999999957
0
ARC
8
BLACK
10
123.6750009999999946
20
-37.9500010000000003
40
0.500001000001
50
90.00011459
51
179.99988541
0
ARC
8
BLACK
10
123.6749999999999972
20
-50.9499999999999957
40
0.500001000001
50
-179.99988541
51
-90.00011459
0
ARC
8
BLACK
10
136.6749999999999829
20
-37.9499999999999957
40
0.5
50
0.00000000
51
90.00000000
0
ARC
8
BLACK
10
136.6749999999999829
20
-50.9499999999999957
40
0.5
50
-90.00000000
51
-0.00000000
0
LINE
8
BLACK
6
CONTINUOUS
10
142.2249989999999968
20
-108.1000009999999918
11
142.2249999999999943
21
-95.0999999999999943
0
LINE
8
BLACK
6
CONTINUOUS
10
142.7249999999999943
20
-94.5999999999999943
11
155.7249999999999943
21
-94.5999999999999943
0
LINE
8
BLACK
6
CONTINUOUS
10
155.7249999999999943
20
-108.5999999999999943
11
142.7249989999999968
21
-108.6000009999999918
0
LINE
8
BLACK
6
CONTINUOUS
10
156.2249999999999943
20
-95.0999999999999943
11
156.2249999999999943
21
-108.0999999999999943
0
ARC
8
BLACK
10
142.7250009999999918
20
-95.1000009999999918
40
0.500001000001
50
90.00011459
51
179.99988541
0
ARC
8
BLACK
10
142.7249999999999943
20
-108.0999999999999943
40
0.500001000001
50
-179.99988541
51
-90.00011459
0
ARC
8
BLACK
10
155.7249999999999943
20
-95.0999999999999943
40
0.5
50
0.00000000
51
90.00000000
0
ARC
8
BLACK
10
155.7249999999999943
20
-108.0999999999999943
40
0.5
50
-90.00000000
51
-0.00000000
0
LINE
8
BLACK
6
CONTINUOUS
10
266.0499990000000139
20
-31.9000009999999996
11
266.0500000000000114
21
-18.8999999999999986
0
LINE
8
BLACK
6
CONTINUOUS
10
266.5500000000000114
20
-18.3999999999999986
11
279.5500000000000114
21
-18.3999999999999986
0
LINE
8
BLACK
6
CONTINUOUS
10
279.5500000000000114
20
-32.3999999999999986
11
266.5499990000000139
21
-32.4000009999999961
0
LINE
8
BLACK
6
CONTINUOUS
10
280.0500000000000114
20
-18.8999999999999986
11
280.0500000000000114
21
-31.8999999999999986
0
ARC
8
BLACK
10
266.5500010000000088
20
-18.9000009999999996
40
0.500001000001
50
90.00011459
51
179.99988541
0
ARC
8
BLACK
10
266.5500000000000114
20
-31.8999999999999986
40
0.500001000001
50
-179.99988541
51
-90.00011459
0
ARC
8
BLACK
10
279.5500000000000114
20
-18.8999999999999986
40
0.5
50
0.00000000
51
90.00000000
0
ARC
8
BLACK
10
279.5500000000000114
20
-31.8999999999999986
40
0.5
50
-90.00000000
51
-0.00000000
0
LINE
8
BLACK
6
CONTINUOUS
10
189.8499989999999968
20
-31.9000009999999996
11
189.8499999999999943
21
-18.8999999999999986
0
LINE
8
BLACK
6
CONTINUOUS
10
190.3499999999999943
20
-18.3999999999999986
11
203.3499999999999943
21
-18.3999999999999986
0
LINE
8
BLACK
6
CONTINUOUS
10
203.3499999999999943
20
-32.3999999999999986
11
190.3499989999999968
21
-32.4000009999999961
0
LINE
8
BLACK
6
CONTINUOUS
10
203.8499999999999943
20
-18.8999999999999986
11
203.8499999999999943
21
-31.8999999999999986
0
ARC
8
BLACK
10
190.3500009999999918
20
-18.9000009999999996
40
0.500001000001
50
90.00011459
51
179.99988541
0
ARC
8
BLACK
10
190.3499999999999943
20
-31.8999999999999986
40
0.500001000001
50
-179.99988541
51
-90.00011459
0
ARC
8
BLACK
10
203.3499999999999943
20
-18.8999999999999986
40
0.5
50
0.00000000
51
90.00000000
0
ARC
8
BLACK
10
203.3499999999999943
20
-31.8999999999999986
40
0.5
50
-90.00000000
51
-0.00000000
0
LINE
8
BLACK
6
CONTINUOUS
10
151.7499990000000025
20
-31.9000009999999996
11
151.75
21
-18.8999999999999986
0
LINE
8
BLACK
6
CONTINUOUS
10
152.25
20
-18.3999999999999986
11
165.25
21
-18.3999999999999986
0
LINE
8
BLACK
6
CONTINUOUS
10
165.25
20
-32.3999999999999986
11
152.2499990000000025
21
-32.4000009999999961
0
LINE
8
BLACK
6
CONTINUOUS
10
165.75
20
-18.8999999999999986
11
165.75
21
-31.8999999999999986
0
ARC
8
BLACK
10
152.2500009999999975
20
-18.9000009999999996
40
0.500001000001
50
90.00011459
51
179.99988541
0
ARC
8
BLACK
10
152.25
20
-31.8999999999999986
40
0.500001000001
50
-179.99988541
51
-90.00011459
0
ARC
8
BLACK
10
165.25
20
-18.8999999999999986
40
0.5
50
0.00000000
51
90.00000000
0
ARC
8
BLACK
10
165.25
20
-31.8999999999999986
40
0.5
50
-90.00000000
51
-0.00000000
0
LINE
8
BLACK
6
CONTINUOUS
10
213.6624989999999968
20
-89.0500009999999946
11
213.6624999999999943
21
-76.0499999999999972
0
LINE
8
BLACK
6
CONTINUOUS
10
214.1624999999999943
20
-75.5499999999999972
11
227.1624999999999943
21
-75.5499999999999972
0
LINE
8
BLACK
6
CONTINUOUS
10
227.1624999999999943
20
-89.5499999999999972
11
214.1624989999999968
21
-89.5500009999999946
0
LINE
8
BLACK
6
CONTINUOUS
10
227.6624999999999943
20
-76.0499999999999972
11
227.6624999999999943
21
-89.0499999999999972
0
ARC
8
BLACK
10
214.1625009999999918
20
-76.0500009999999946
40
0.500001000001
50
90.00011459
51
179.99988541
0
ARC
8
BLACK
10
214.1624999999999943
20
-89.0499999999999972
40
0.500001000001
50
-179.99988541
51
-90.00011459
0
ARC
8
BLACK
10
227.1624999999999943
20
-76.0499999999999972
40
0.5
50
0.00000000
51
90.00000000
0
ARC
8
BLACK
10
227.1624999999999943
20
-89.0499999999999972
40
0.5
50
-90.00000000
51
-0.00000000
0
LINE
8
BLACK
6
CONTINUOUS
10
232.7124989999999798
20
-89.0500009999999946
11
232.7124999999999773
21
-76.0499999999999972
0
LINE
8
BLACK
6
CONTINUOUS
10
233.2124999999999773
20
-75.5499999999999972
11
246.2124999999999773
21
-75.5499999999999972
0
LINE
8
BLACK
6
CONTINUOUS
10
246.2124999999999773
20
-89.5499999999999972
11
233.2124989999999798
21
-89.5500009999999946
0
LINE
8
BLACK
6
CONTINUOUS
10
246.7124999999999773
20
-76.0499999999999972
11
246.7124999999999773
21
-89.0499999999999972
0
ARC
8
BLACK
10
233.2125010000000032
20
-76.0500009999999946
40
0.500001000001
50
90.00011459
51
179.99988541
0
ARC
8
BLACK
10
233.2124999999999773
20
-89.0499999999999972
40
0.500001000001
50
-179.99988541
51
-90.00011459
0
ARC
8
BLACK
10
246.2124999999999773
20
-76.0499999999999972
40
0.5
50
0.00000000
51
90.00000000
0
ARC
8
BLACK
10
246.2124999999999773
20
-89.0499999999999972
40
0.5
50
-90.00000000
51
-0.00000000
0
LINE
8
BLACK
6
CONTINUOUS
10
223.1874990000000025
20
-70.0000009999999975
11
223.1875
21
-57.
0
LINE
8
BLACK
6
CONTINUOUS
10
223.6875
20
-56.5
11
236.6875
21
-56.5
0
LINE
8
BLACK
6
CONTINUOUS
10
236.6875
20
-70.5
11
223.6874990000000025
21
-70.5000009999999975
0
LINE
8
BLACK
6
CONTINUOUS
10
237.1875
20
-57.
11
237.1875
21
-70.
0
ARC
8
BLACK
10
223.6875009999999975
20
-57.0000009999999975
40
0.500001000001
50
90.00011459
51
179.99988541
0
ARC
8
BLACK
10
223.6875
20
-70.
40
0.500001000001
50
-179.99988541
51
-90.00011459
0
ARC
8
BLACK
10
236.6875
20
-57.
40
0.5
50
0.00000000
51
90.00000000
0
ARC
8
BLACK
10
236.6875
20
-70.
40
0.5
50
-90.00000000
51
-0.00000000
0
LINE
8
BLACK
6
CONTINUOUS
10
89.837498999999994
20
-70.0000009999999975
11
89.8374999999999915
21
-57.
0
LINE
8
BLACK
6
CONTINUOUS
10
90.3374999999999915
20
-56.5
11
103.3374999999999915
21
-56.5
0
LINE
8
BLACK
6
CONTINUOUS
10
103.3374999999999915
20
-70.5
11
90.337498999999994
21
-70.5000009999999975
0
LINE
8
BLACK
6
CONTINUOUS
10
103.8374999999999915
20
-57.
11
103.8374999999999915
21
-70.
0
ARC
8
BLACK
10
90.3375009999999889
20
-57.0000009999999975
40
0.500001000001
50
90.00011459
51
179.99988541
0
ARC
8
BLACK
10
90.3374999999999915
20
-70.
40
0.500001000001
50
-179.99988541
51
-90.00011459
0
ARC
8
BLACK
10
103.3374999999999915
20
-57.
40
0.5
50
0.00000000
51
90.00000000
0
ARC
8
BLACK
10
103.3374999999999915
20
-70.
40
0.5
50
-90.00000000
51
-0.00000000
0
LINE
8
BLACK
6
CONTINUOUS
10
204.1374989999999912
20
-70.0000009999999975
11
204.1374999999999886
21
-57.
0
LINE
8
BLACK
6
CONTINUOUS
10
204.6374999999999886
20
-56.5
11
217.6374999999999886
21
-56.5
0
LINE
8
BLACK
6
CONTINUOUS
10
217.6374999999999886
20
-70.5
11
204.6374989999999912
21
-70.5000009999999975
0
LINE
8
BLACK
6
CONTINUOUS
10
218.1374999999999886
20
-57.
11
218.1374999999999886
21
-70.
0
ARC
8
BLACK
10
204.6375009999999861
20
-57.0000009999999975
40
0.500001000001
50
90.00011459
51
179.99988541
0
ARC
8
BLACK
10
204.6374999999999886
20
-70.
40
0.500001000001
50
-179.99988541
51
-90.00011459
0
ARC
8
BLACK
10
217.6374999999999886
20
-57.
40
0.5
50
0.00000000
51
90.00000000
0
ARC
8
BLACK
10
217.6374999999999886
20
-70.
40
0.5
50
-90.00000000
51
-0.00000000
0
LINE
8
BLACK
6
CONTINUOUS
10
46.9749989999999968
20
-50.9500010000000003
11
46.9750000000000014
21
-37.9499999999999957
0
LINE
8
BLACK
6
CONTINUOUS
10
47.4749999999999943
20
-37.4499999999999957
11
60.4749999999999943
21
-37.4499999999999957
0
LINE
8
BLACK
6
CONTINUOUS
10
60.4749999999999943
20
-51.4499999999999957
11
47.4749989999999968
21
-51.4500010000000003
0
LINE
8
BLACK
6
CONTINUOUS
10
60.9749999999999943
20
-37.9499999999999957
11
60.9749999999999943
21
-50.9499999999999957
0
ARC
8
BLACK
10
47.4750009999999989
20
-37.9500010000000003
40
0.500001000001
50
90.00011459
51
179.99988541
0
ARC
8
BLACK
10
47.4749999999999943
20
-50.9499999999999957
40
0.500001000001
50
-179.99988541
51
-90.00011459
0
ARC
8
BLACK
10
60.4749999999999943
20
-37.9499999999999957
40
0.5
50
0.00000000
51
90.00000000
0
ARC
8
BLACK
10
60.4749999999999943
20
-50.9499999999999957
40
0.5
50
-90.00000000
51
-0.00000000
0
LINE
8
BLACK
6
CONTINUOUS
10
175.5624990000000025
20
-89.0500009999999946
11
175.5625
21
-76.0499999999999972
0
LINE
8
BLACK
6
CONTINUOUS
10
176.0625
20
-75.5499999999999972
11
189.0625
21
-75.5499999999999972
0
LINE
8
BLACK
6
CONTINUOUS
10
189.0625
20
-89.5499999999999972
11
176.0624990000000025
21
-89.5500009999999946
0
LINE
8
BLACK
6
CONTINUOUS
10
189.5625
20
-76.0499999999999972
11
189.5625
21
-89.0499999999999972
0
ARC
8
BLACK
10
176.0625009999999975
20
-76.0500009999999946
40
0.500001000001
50
90.00011459
51
179.99988541
0
ARC
8
BLACK
10
176.0625
20
-89.0499999999999972
40
0.500001000001
50
-179.99988541
51
-90.00011459
0
ARC
8
BLACK
10
189.0625
20
-76.0499999999999972
40
0.5
50
0.00000000
51
90.00000000
0
ARC
8
BLACK
10
189.0625
20
-89.0499999999999972
40
0.5
50
-90.00000000
51
-0.00000000
0
LINE
8
BLACK
6
CONTINUOUS
10
104.1249989999999883
20
-50.9500010000000003
11
104.125
21
-37.9499999999999957
0
LINE
8
BLACK
6
CONTINUOUS
10
104.625
20
-37.4499999999999957
11
117.625
21
-37.4499999999999957
0
LINE
8
BLACK
6
CONTINUOUS
10
117.625
20
-51.4499999999999957
11
104.6249989999999883
21
-51.4500010000000003
0
LINE
8
BLACK
6
CONTINUOUS
10
118.125
20
-37.9499999999999957
11
118.125
21
-50.9499999999999957
0
ARC
8
BLACK
10
104.6250009999999975
20
-37.9500010000000003
40
0.500001000001
50
90.00011459
51
179.99988541
0
ARC
8
BLACK
10
104.625
20
-50.9499999999999957
40
0.500001000001
50
-179.99988541
51
-90.00011459
0
ARC
8
BLACK
10
117.625
20
-37.9499999999999957
40
0.5
50
0.00000000
51
90.00000000
0
ARC
8
BLACK
10
117.625
20
-50.9499999999999957
40
0.5
50
-90.00000000
51
-0.00000000
0
LINE
8
BLACK
6
CONTINUOUS
10
227.9499989999999912
20
-31.9000009999999996
11
227.9499999999999886
21
-18.8999999999999986
0
LINE
8
BLACK
6
CONTINUOUS
10
228.4499999999999886
20
-18.3999999999999986
11
241.4499999999999886
21
-18.3999999999999986
0
LINE
8
BLACK
6
CONTINUOUS
10
241.4499999999999886
20
-32.3999999999999986
11
228.4499989999999912
21
-32.4000009999999961
0
LINE
8
BLACK
6
CONTINUOUS
10
241.9499999999999886
20
-18.8999999999999986
11
241.9499999999999886
21
-31.8999999999999986
0
ARC
8
BLACK
10
228.4500009999999861
20
-18.9000009999999996
40
0.500001000001
50
90.00011459
51
179.99988541
0
ARC
8
BLACK
10
228.4499999999999886
20
-31.8999999999999986
40
0.500001000001
50
-179.99988541
51
-90.00011459
0
ARC
8
BLACK
10
241.4499999999999886
20
-18.8999999999999986
40
0.5
50
0.00000000
51
90.00000000
0
ARC
8
BLACK
10
241.4499999999999886
20
-31.8999999999999986
40
0.5
50
-90.00000000
51
-0.00000000
0
LINE
8
BLACK
6
CONTINUOUS
10
37.4499989999999983
20
-108.1000009999999918
11
37.4499999999999957
21
-95.0999999999999943
0
LINE
8
BLACK
6
CONTINUOUS
10
37.9499999999999957
20
-94.5999999999999943
11
50.9499999999999957
21
-94.5999999999999943
0
LINE
8
BLACK
6
CONTINUOUS
10
50.9499999999999957
20
-108.5999999999999943
11
37.9499989999999983
21
-108.6000009999999918
0
LINE
8
BLACK
6
CONTINUOUS
10
51.4499999999999957
20
-95.0999999999999943
11
51.4499999999999957
21
-108.0999999999999943
0
ARC
8
BLACK
10
37.9500010000000003
20
-95.1000009999999918
40
0.500001000001
50
90.00011459
51
179.99988541
0
ARC
8
BLACK
10
37.9499999999999957
20
-108.0999999999999943
40
0.500001000001
50
-179.99988541
51
-90.00011459
0
ARC
8
BLACK
10
50.9499999999999957
20
-95.0999999999999943
40
0.5
50
0.00000000
51
90.00000000
0
ARC
8
BLACK
10
50.9499999999999957
20
-108.0999999999999943
40
0.5
50
-90.00000000
51
-0.00000000
0
LINE
8
BLACK
6
CONTINUOUS
10
166.0374989999999968
20
-70.0000009999999975
11
166.0374999999999943
21
-57.
0
LINE
8
BLACK
6
CONTINUOUS
10
166.5374999999999943
20
-56.5
11
179.5374999999999943
21
-56.5
0
LINE
8
BLACK
6
CONTINUOUS
10
179.5374999999999943
20
-70.5
11
166.5374989999999968
21
-70.5000009999999975
0
LINE
8
BLACK
6
CONTINUOUS
10
180.0374999999999943
20
-57.
11
180.0374999999999943
21
-70.
0
ARC
8
BLACK
10
166.5375009999999918
20
-57.0000009999999975
40
0.500001000001
50
90.00011459
51
179.99988541
0
ARC
8
BLACK
10
166.5374999999999943
20
-70.
40
0.500001000001
50
-179.99988541
51
-90.00011459
0
ARC
8
BLACK
10
179.5374999999999943
20
-57.
40
0.5
50
0.00000000
51
90.00000000
0
ARC
8
BLACK
10
179.5374999999999943
20
-70.
40
0.5
50
-90.00000000
51
-0.00000000
0
LINE
8
BLACK
6
CONTINUOUS
10
61.2624989999999983
20
-89.0500009999999946
11
61.2624999999999957
21
-76.0499999999999972
0
LINE
8
BLACK
6
CONTINUOUS
10
61.7624999999999957
20
-75.5499999999999972
11
74.7625000000000028
21
-75.5499999999999972
0
LINE
8
BLACK
6
CONTINUOUS
10
74.7625000000000028
20
-89.5499999999999972
11
61.7624989999999983
21
-89.5500009999999946
0
LINE
8
BLACK
6
CONTINUOUS
10
75.2625000000000028
20
-76.0499999999999972
11
75.2625000000000028
21
-89.0499999999999972
0
ARC
8
BLACK
10
61.7625010000000003
20
-76.0500009999999946
40
0.500001000001
50
90.00011459
51
179.99988541
0
ARC
8
BLACK
10
61.7624999999999957
20
-89.0499999999999972
40
0.500001000001
50
-179.99988541
51
-90.00011459
0
ARC
8
BLACK
10
74.7625000000000028
20
-76.0499999999999972
40
0.5
50
0.00000000
51
90.00000000
0
ARC
8
BLACK
10
74.7625000000000028
20
-89.0499999999999972
40
0.5
50
-90.00000000
51
-0.00000000
0
LINE
8
BLACK
6
CONTINUOUS
10
85.0749989999999912
20
-50.9500010000000003
11
85.0750000000000028
21
-37.9499999999999957
0
LINE
8
BLACK
6
CONTINUOUS
10
85.5750000000000028
20
-37.4499999999999957
11
98.5749999999999886
21
-37.4499999999999957
0
LINE
8
BLACK
6
CONTINUOUS
10
98.5749999999999886
20
-51.4499999999999957
11
85.5749989999999912
21
-51.4500010000000003
0
LINE
8
BLACK
6
CONTINUOUS
10
99.0749999999999886
20
-37.9499999999999957
11
99.0749999999999886
21
-50.9499999999999957
0
ARC
8
BLACK
10
85.5750010000000003
20
-37.9500010000000003
40
0.500001000001
50
90.00011459
51
179.99988541
0
ARC
8
BLACK
10
85.5750000000000028
20
-50.9499999999999957
40
0.500001000001
50
-179.99988541
51
-90.00011459
0
ARC
8
BLACK
10
98.5749999999999886
20
-37.9499999999999957
40
0.5
50
0.00000000
51
90.00000000
0
ARC
8
BLACK
10
98.5749999999999886
20
-50.9499999999999957
40
0.5
50
-90.00000000
51
-0.00000000
0
LINE
8
BLACK
6
CONTINUOUS
10
56.4999989999999954
20
-108.1000009999999918
11
56.5
21
-95.0999999999999943
0
LINE
8
BLACK
6
CONTINUOUS
10
57.
20
-94.5999999999999943
11
70.
21
-94.5999999999999943
0
LINE
8
BLACK
6
CONTINUOUS
10
70.
20
-108.5999999999999943
11
56.9999989999999954
21
-108.6000009999999918
0
LINE
8
BLACK
6
CONTINUOUS
10
70.5
20
-95.0999999999999943
11
70.5
21
-108.0999999999999943
0
ARC
8
BLACK
10
57.0000009999999975
20
-95.1000009999999918
40
0.500001000001
50
90.00011459
51
179.99988541
0
ARC
8
BLACK
10
57.
20
-108.0999999999999943
40
0.500001000001
50
-179.99988541
51
-90.00011459
0
ARC
8
BLACK
10
70.
20
-95.0999999999999943
40
0.5
50
0.00000000
51
90.00000000
0
ARC
8
BLACK
10
70.
20
-108.0999999999999943
40
0.5
50
-90.00000000
51
-0.00000000
0
LINE
8
BLACK
6
CONTINUOUS
10
51.7374989999999997
20
-70.0000009999999975
11
51.7374999999999972
21
-57.
0
LINE
8
BLACK
6
CONTINUOUS
10
52.2374999999999972
20
-56.5
11
65.2374999999999972
21
-56.5
0
LINE
8
BLACK
6
CONTINUOUS
10
65.2374999999999972
20
-70.5
11
52.2374989999999997
21
-70.5000009999999975
0
LINE
8
BLACK
6
CONTINUOUS
10
65.7374999999999972
20
-57.
11
65.7374999999999972
21
-70.
0
ARC
8
BLACK
10
52.2375009999999946
20
-57.0000009999999975
40
0.500001000001
50
90.00011459
51
179.99988541
0
ARC
8
BLACK
10
52.2374999999999972
20
-70.
40
0.500001000001
50
-179.99988541
51
-90.00011459
0
ARC
8
BLACK
10
65.2374999999999972
20
-57.
40
0.5
50
0.00000000
51
90.00000000
0
ARC
8
BLACK
10
65.2374999999999972
20
-70.
40
0.5
50
-90.00000000
51
-0.00000000
0
LINE
8
BLACK
6
CONTINUOUS
10
199.3749990000000025
20
-50.9500010000000003
11
199.375
21
-37.9499999999999957
0
LINE
8
BLACK
6
CONTINUOUS
10
199.875
20
-37.4499999999999957
11
212.875
21
-37.4499999999999957
0
LINE
8
BLACK
6
CONTINUOUS
10
212.875
20
-51.4499999999999957
11
199.8749990000000025
21
-51.4500010000000003
0
LINE
8
BLACK
6
CONTINUOUS
10
213.375
20
-37.9499999999999957
11
213.375
21
-50.9499999999999957
0
ARC
8
BLACK
10
199.8750009999999975
20
-37.9500010000000003
40
0.500001000001
50
90.00011459
51
179.99988541
0
ARC
8
BLACK
10
199.875
20
-50.9499999999999957
40
0.500001000001
50
-179.99988541
51
-90.00011459
0
ARC
8
BLACK
10
212.875
20
-37.9499999999999957
40
0.5
50
0.00000000
51
90.00000000
0
ARC
8
BLACK
10
212.875
20
-50.9499999999999957
40
0.5
50
-90.00000000
51
-0.00000000
0
LINE
8
BLACK
6
CONTINUOUS
10
242.2374989999999855
20
-70.0000009999999975
11
242.2374999999999829
21
-57.
0
LINE
8
BLACK
6
CONTINUOUS
10
242.7374999999999829
20
-56.5
11
255.7374999999999829
21
-56.5
0
LINE
8
BLACK
6
CONTINUOUS
10
255.7374999999999829
20
-70.5
11
242.7374989999999855
21
-70.5000009999999975
0
LINE
8
BLACK
6
CONTINUOUS
10
256.2375000000000114
20
-57.
11
256.2375000000000114
21
-70.
0
ARC
8
BLACK
10
242.7375009999999804
20
-57.0000009999999975
40
0.500001000001
50
90.00011459
51
179.99988541
0
ARC
8
BLACK
10
242.7374999999999829
20
-70.
40
0.500001000001
50
-179.99988541
51
-90.00011459
0
ARC
8
BLACK
10
255.7374999999999829
20
-57.
40
0.5
50
0.00000000
51
90.00000000
0
ARC
8
BLACK
10
255.7374999999999829
20
-70.
40
0.5
50
-90.00000000
51
-0.00000000
0
LINE
8
BLACK
6
CONTINUOUS
10
237.4749989999999968
20
-50.9500010000000003
11
237.4749999999999943
21
-37.9499999999999957
0
LINE
8
BLACK
6
CONTINUOUS
10
237.9749999999999943
20
-37.4499999999999957
11
250.9749999999999943
21
-37.4499999999999957
0
LINE
8
BLACK
6
CONTINUOUS
10
250.9749999999999943
20
-51.4499999999999957
11
237.9749989999999968
21
-51.4500010000000003
0
LINE
8
BLACK
6
CONTINUOUS
10
251.4749999999999943
20
-37.9499999999999957
11
251.4749999999999943
21
-50.9499999999999957
0
ARC
8
BLACK
10
237.9750009999999918
20
-37.9500010000000003
40
0.500001000001
50
90.00011459
51
179.99988541
0
ARC
8
BLACK
10
237.9749999999999943
20
-50.9499999999999957
40
0.500001000001
50
-179.99988541
51
-90.00011459
0
ARC
8
BLACK
10
250.9749999999999943
20
-37.9499999999999957
40
0.5
50
0.00000000
51
90.00000000
0
ARC
8
BLACK
10
250.9749999999999943
20
-50.9499999999999957
40
0.5
50
-90.00000000
51
-0.00000000
0
LINE
8
BLACK
6
CONTINUOUS
10
18.3999989999999976
20
-108.1000009999999918
11
18.3999999999999986
21
-95.0999999999999943
0
LINE
8
BLACK
6
CONTINUOUS
10
18.8999999999999986
20
-94.5999999999999943
11
31.8999999999999986
21
-94.5999999999999943
0
LINE
8
BLACK
6
CONTINUOUS
10
31.8999999999999986
20
-108.5999999999999943
11
18.8999989999999976
21
-108.6000009999999918
0
LINE
8
BLACK
6
CONTINUOUS
10
32.3999999999999986
20
-95.0999999999999943
11
32.3999999999999986
21
-108.0999999999999943
0
ARC
8
BLACK
10
18.9000009999999996
20
-95.1000009999999918
40
0.500001000001
50
90.00011459
51
179.99988541
0
ARC
8
BLACK
10
18.8999999999999986
20
-108.0999999999999943
40
0.500001000001
50
-179.99988541
51
-90.00011459
0
ARC
8
BLACK
10
31.8999999999999986
20
-95.0999999999999943
40
0.5
50
0.00000000
51
90.00000000
0
ARC
8
BLACK
10
31.8999999999999986
20
-108.0999999999999943
40
0.5
50
-90.00000000
51
-0.00000000
0
LINE
8
BLACK
6
CONTINUOUS
10
75.5499989999999997
20
-31.9000009999999996
11
75.5499999999999972
21
-18.8999999999999986
0
LINE
8
BLACK
6
CONTINUOUS
10
76.0499999999999972
20
-18.3999999999999986
11
89.0499999999999972
21
-18.3999999999999986
0
LINE
8
BLACK
6
CONTINUOUS
10
89.0499999999999972
20
-32.3999999999999986
11
76.0499989999999997
21
-32.4000009999999961
0
LINE
8
BLACK
6
CONTINUOUS
10
89.5499999999999972
20
-18.8999999999999986
11
89.5499999999999972
21
-31.8999999999999986
0
ARC
8
BLACK
10
76.0500009999999946
20
-18.9000009999999996
40
0.500001000001
50
90.00011459
51
179.99988541
0
ARC
8
BLACK
10
76.0499999999999972
20
-31.8999999999999986
40
0.500001000001
50
-179.99988541
51
-90.00011459
0
ARC
8
BLACK
10
89.0499999999999972
20
-18.8999999999999986
40
0.5
50
0.00000000
51
90.00000000
0
ARC
8
BLACK
10
89.0499999999999972
20
-31.8999999999999986
40
0.5
50
-90.00000000
51
-0.00000000
0
LINE
8
BLACK
6
CONTINUOUS
10
37.4499989999999983
20
-31.9000009999999996
11
37.4499999999999957
21
-18.8999999999999986
0
LINE
8
BLACK
6
CONTINUOUS
10
37.9499999999999957
20
-18.3999999999999986
11
50.9499999999999957
21
-18.3999999999999986
0
LINE
8
BLACK
6
CONTINUOUS
10
50.9499999999999957
20
-32.3999999999999986
11
37.9499989999999983
21
-32.4000009999999961
0
LINE
8
BLACK
6
CONTINUOUS
10
51.4499999999999957
20
-18.8999999999999986
11
51.4499999999999957
21
-31.8999999999999986
0
ARC
8
BLACK
10
37.9500010000000003
20
-18.9000009999999996
40
0.500001000001
50
90.00011459
51
179.99988541
0
ARC
8
BLACK
10
37.9499999999999957
20
-31.8999999999999986
40
0.500001000001
50
-179.99988541
51
-90.00011459
0
ARC
8
BLACK
10
50.9499999999999957
20
-18.8999999999999986
40
0.5
50
0.00000000
51
90.00000000
0
ARC
8
BLACK
10
50.9499999999999957
20
-31.8999999999999986
40
0.5
50
-90.00000000
51
-0.00000000
0
LINE
8
BLACK
6
CONTINUOUS
10
80.3124990000000025
20
-89.0500009999999946
11
80.3125
21
-76.0499999999999972
0
LINE
8
BLACK
6
CONTINUOUS
10
80.8125
20
-75.5499999999999972
11
93.8125
21
-75.5499999999999972
0
LINE
8
BLACK
6
CONTINUOUS
10
93.8125
20
-89.5499999999999972
11
80.8124990000000025
21
-89.5500009999999946
0
LINE
8
BLACK
6
CONTINUOUS
10
94.3125
20
-76.0499999999999972
11
94.3125
21
-89.0499999999999972
0
ARC
8
BLACK
10
80.8125009999999975
20
-76.0500009999999946
40
0.500001000001
50
90.00011459
51
179.99988541
0
ARC
8
BLACK
10
80.8125
20
-89.0499999999999972
40
0.500001000001
50
-179.99988541
51
-90.00011459
0
ARC
8
BLACK
10
93.8125
20
-76.0499999999999972
40
0.5
50
0.00000000
51
90.00000000
0
ARC
8
BLACK
10
93.8125
20
-89.0499999999999972
40
0.5
50
-90.00000000
51
-0.00000000
0
LINE
8
BLACK
6
CONTINUOUS
10
161.2749989999999798
20
-50.9500010000000003
11
161.2750000000000057
21
-37.9499999999999957
0
LINE
8
BLACK
6
CONTINUOUS
10
161.7750000000000057
20
-37.4499999999999957
11
174.7750000000000057
21
-37.4499999999999957
0
LINE
8
BLACK
6
CONTINUOUS
10
174.7750000000000057
20
-51.4499999999999957
11
161.7749989999999798
21
-51.4500010000000003
0
LINE
8
BLACK
6
CONTINUOUS
10
175.2750000000000057
20
-37.9499999999999957
11
175.2750000000000057
21
-50.9499999999999957
0
ARC
8
BLACK
10
161.7750010000000032
20
-37.9500010000000003
40
0.500001000001
50
90.00011459
51
179.99988541
0
ARC
8
BLACK
10
161.7750000000000057
20
-50.9499999999999957
40
0.500001000001
50
-179.99988541
51
-90.00011459
0
ARC
8
BLACK
10
174.7750000000000057
20
-37.9499999999999957
40
0.5
50
0.00000000
51
90.00000000
0
ARC
8
BLACK
10
174.7750000000000057
20
-50.9499999999999957
40
0.5
50
-90.00000000
51
-0.00000000
0
LINE
8
BLACK
6
CONTINUOUS
10
302.7299999999999613
20
-48.1012500000000003
11
302.7299999999999613
21
-17.6372499999999981
0
LINE
8
BLACK
6
CONTINUOUS
10
304.3299999999999841
20
-17.6372499999999981
11
304.3299999999999841
21
-48.1012500000000003
0
LINE
8
BLACK
6
CONTINUOUS
10
310.6166000000000054
20
-45.8075299999999999
11
315.6965999999999894
21
-45.8075299999999999
0
LINE
8
BLACK
6
CONTINUOUS
10
311.1499999999999773
20
-42.2212499999999977
11
316.2299999999999613
21
-42.2212499999999977
0
LINE
8
BLACK
6
CONTINUOUS
10
315.6965999999999894
20
-44.2075299999999984
11
310.6166000000000054
21
-44.2075299999999984
0
LINE
8
BLACK
6
CONTINUOUS
10
316.2299999999999613
20
-43.8212499999999991
11
311.1499999999999773
21
-43.8212499999999991
0
LINE
8
BLACK
6
CONTINUOUS
10
317.9780000000000086
20
-17.629249999999999
11
317.9780000000000086
21
-48.0932499999999976
0
LINE
8
BLACK
6
CONTINUOUS
10
319.5779999999999745
20
-48.0932499999999976
11
319.5779999999999745
21
-17.629249999999999
0
ARC
8
BLACK
10
303.5299999999999727
20
-17.6372499999999981
40
0.7999999999999999
50
0.00000000
51
180.00000000
0
ARC
8
BLACK
10
303.5299999999999727
20
-48.1012500000000003
40
0.7999999999999999
50
-180.00000000
51
-0.00000000
0
ARC
8
BLACK
10
310.6166000000000054
20
-45.0075299999999956
40
0.7999999999999999
50
-270.00000000
51
-90.00000000
0
ARC
8
BLACK
10
311.1499999999999773
20
-43.0212499999999949
40
0.7999999999999999
50
-270.00000000
51
-90.00000000
0
ARC
8
BLACK
10
315.6965999999999894
20
-45.0075299999999956
40
0.7999999999999999
50
-90.00000000
51
90.00000000
0
ARC
8
BLACK
10
316.2299999999999613
20
-43.0212499999999949
40
0.7999999999999999
50
-90.00000000
51
90.00000000
0
ARC
8
BLACK
10
318.7779999999999632
20
-17.629249999999999
40
0.7999999999999999
50
0.00000000
51
180.00000000
0
ARC
8
BLACK
10
318.7779999999999632
20
-48.0932499999999976
40
0.7999999999999999
50
-180.00000000
51
-0.00000000
0
LINE
8
BLACK
6
CONTINUOUS
10
246.9999990000000025
20
-31.9000009999999996
11
247.
21
-18.8999999999999986
0
LINE
8
BLACK
6
CONTINUOUS
10
247.5
20
-18.3999999999999986
11
260.5
21
-18.3999999999999986
0
LINE
8
BLACK
6
CONTINUOUS
10
260.5
20
-32.3999999999999986
11
247.4999990000000025
21
-32.4000009999999961
0
LINE
8
BLACK
6
CONTINUOUS
10
261.
20
-18.8999999999999986
11
261.
21
-31.8999999999999986
0
ARC
8
BLACK
10
247.5000009999999975
20
-18.9000009999999996
40
0.500001000001
50
90.00011459
51
179.99988541
0
ARC
8
BLACK
10
247.5
20
-31.8999999999999986
40
0.500001000001
50
-179.99988541
51
-90.00011459
0
ARC
8
BLACK
10
260.5
20
-18.8999999999999986
40
0.5
50
0.00000000
51
90.00000000
0
ARC
8
BLACK
10
260.5
20
-31.8999999999999986
40
0.5
50
-90.00000000
51
-0.00000000
0
LINE
8
BLACK
6
CONTINUOUS
10
180.3249989999999912
20
-50.9500010000000003
11
180.3249999999999886
21
-37.9499999999999957
0
LINE
8
BLACK
6
CONTINUOUS
10
180.8249999999999886
20
-37.4499999999999957
11
193.8249999999999886
21
-37.4499999999999957
0
LINE
8
BLACK
6
CONTINUOUS
10
193.8249999999999886
20
-51.4499999999999957
11
180.8249989999999912
21
-51.4500010000000003
0
LINE
8
BLACK
6
CONTINUOUS
10
194.3249999999999886
20
-37.9499999999999957
11
194.3249999999999886
21
-50.9499999999999957
0
ARC
8
BLACK
10
180.8250009999999861
20
-37.9500010000000003
40
0.500001000001
50
90.00011459
51
179.99988541
0
ARC
8
BLACK
10
180.8249999999999886
20
-50.9499999999999957
40
0.500001000001
50
-179.99988541
51
-90.00011459
0
ARC
8
BLACK
10
193.8249999999999886
20
-37.9499999999999957
40
0.5
50
0.00000000
51
90.00000000
0
ARC
8
BLACK
10
193.8249999999999886
20
-50.9499999999999957
40
0.5
50
-90.00000000
51
-0.00000000
0
LINE
8
BLACK
6
CONTINUOUS
10
256.5249989999999798
20
-50.9500010000000003
11
256.5249999999999773
21
-37.9499999999999957
0
LINE
8
BLACK
6
CONTINUOUS
10
257.0249999999999773
20
-37.4499999999999957
11
270.0249999999999773
21
-37.4499999999999957
0
LINE
8
BLACK
6
CONTINUOUS
10
270.0249999999999773
20
-51.4499999999999957
11
257.0249989999999798
21
-51.4500010000000003
0
LINE
8
BLACK
6
CONTINUOUS
10
270.5249999999999773
20
-37.9499999999999957
11
270.5249999999999773
21
-50.9499999999999957
0
ARC
8
BLACK
10
257.0250009999999747
20
-37.9500010000000003
40
0.500001000001
50
90.00011459
51
179.99988541
0
ARC
8
BLACK
10
257.0249999999999773
20
-50.9499999999999957
40
0.500001000001
50
-179.99988541
51
-90.00011459
0
ARC
8
BLACK
10
270.0249999999999773
20
-37.9499999999999957
40
0.5
50
0.00000000
51
90.00000000
0
ARC
8
BLACK
10
270.0249999999999773
20
-50.9499999999999957
40
0.5
50
-90.00000000
51
-0.00000000
0
LINE
8
BLACK
6
CONTINUOUS
10
285.0999989999999684
20
-31.9000009999999996
11
285.0999999999999659
21
-18.8999999999999986
0
LINE
8
BLACK
6
CONTINUOUS
10
285.5999999999999659
20
-18.3999999999999986
11
298.5999999999999659
21
-18.3999999999999986
0
LINE
8
BLACK
6
CONTINUOUS
10
298.5999999999999659
20
-32.3999999999999986
11
285.5999989999999684
21
-32.4000009999999961
0
LINE
8
BLACK
6
CONTINUOUS
10
299.0999999999999659
20
-18.8999999999999986
11
299.0999999999999659
21
-31.8999999999999986
0
ARC
8
BLACK
10
285.6000009999999634
20
-18.9000009999999996
40
0.500001000001
50
90.00011459
51
179.99988541
0
ARC
8
BLACK
10
285.5999999999999659
20
-31.8999999999999986
40
0.500001000001
50
-179.99988541
51
-90.00011459
0
ARC
8
BLACK
10
298.5999999999999659
20
-18.8999999999999986
40
0.5
50
0.00000000
51
90.00000000
0
ARC
8
BLACK
10
298.5999999999999659
20
-31.8999999999999986
40
0.5
50
-90.00000000
51
-0.00000000
0
LINE
8
BLACK
6
CONTINUOUS
10
227.9499989999999912
20
-108.1000009999999918
11
227.9499999999999886
21
-95.0999999999999943
0
LINE
8
BLACK
6
CONTINUOUS
10
228.4499999999999886
20
-94.5999999999999943
11
241.4499999999999886
21
-94.5999999999999943
0
LINE
8
BLACK
6
CONTINUOUS
10
241.4499999999999886
20
-108.5999999999999943
11
228.4499989999999912
21
-108.6000009999999918
0
LINE
8
BLACK
6
CONTINUOUS
10
241.9499999999999886
20
-95.0999999999999943
11
241.9499999999999886
21
-108.0999999999999943
0
ARC
8
BLACK
10
228.4500009999999861
20
-95.1000009999999918
40
0.500001000001
50
90.00011459
51
179.99988541
0
ARC
8
BLACK
10
228.4499999999999886
20
-108.0999999999999943
40
0.500001000001
50
-179.99988541
51
-90.00011459
0
ARC
8
BLACK
10
241.4499999999999886
20
-95.0999999999999943
40
0.5
50
0.00000000
51
90.00000000
0
ARC
8
BLACK
10
241.4499999999999886
20
-108.0999999999999943
40
0.5
50
-90.00000000
51
-0.00000000
  0
ENDSEC
  0
EOF
